<svg width="34" height="34" viewBox="0 0 34 34" fill="none" xmlns="http://www.w3.org/2000/svg">
<path d="M17.0019 1.46106e-06C7.60831 -0.00390031 0 7.80744 0 17.4487C0 25.0728 4.75947 31.5536 11.3878 33.9337C12.2804 34.1639 12.1437 33.5123 12.1437 33.0675V30.0436C6.98916 30.664 6.78025 27.1602 6.43459 26.5749C5.73567 25.3498 4.08334 25.0376 4.57714 24.4524C5.75087 23.832 6.94738 24.6084 8.33382 26.7115C9.33661 28.2371 11.2928 27.9796 12.2842 27.726C12.5007 26.809 12.9641 25.9897 13.6023 25.3537C8.26165 24.3704 6.03575 21.0227 6.03575 17.0429C6.03575 15.1115 6.6549 13.3362 7.87041 11.9043C7.09552 9.54372 7.94258 7.52261 8.05653 7.22217C10.2634 7.01928 12.5577 8.84531 12.7362 8.98967C13.9897 8.64242 15.4217 8.45903 17.0247 8.45903C18.6352 8.45903 20.0711 8.65022 21.3359 9.00138C21.7652 8.66583 23.8923 7.09732 25.9435 7.2885C26.0536 7.58894 26.8817 9.56323 26.1524 11.8926C27.3831 13.3284 28.0098 15.1193 28.0098 17.0546C28.0098 21.0422 25.7687 24.3938 20.4129 25.3615C20.8717 25.8249 21.2359 26.3776 21.4844 26.9872C21.7329 27.5968 21.8606 28.2512 21.8601 28.9121V33.3016C21.8905 33.6527 21.8601 34 22.4299 34C29.157 31.6706 34 25.143 34 17.4526C34 7.80744 26.3879 1.46106e-06 17.0019 1.46106e-06V1.46106e-06Z" fill="#2B3D42"/>
</svg>
