<svg width="34" height="34" viewBox="0 0 34 34" fill="none" xmlns="http://www.w3.org/2000/svg">
<path d="M16.9954 8.27736C12.1685 8.27736 8.27295 12.173 8.27295 17C8.27295 21.827 12.1685 25.7226 16.9954 25.7226C21.8224 25.7226 25.7179 21.827 25.7179 17C25.7179 12.173 21.8224 8.27736 16.9954 8.27736ZM16.9954 22.6691C13.8739 22.6691 11.3265 20.1216 11.3265 17C11.3265 13.8784 13.8739 11.3309 16.9954 11.3309C20.117 11.3309 22.6644 13.8784 22.6644 17C22.6644 20.1216 20.117 22.6691 16.9954 22.6691ZM26.0751 5.88724C24.9482 5.88724 24.0381 6.79736 24.0381 7.92437C24.0381 9.05138 24.9482 9.96149 26.0751 9.96149C27.2021 9.96149 28.1122 9.05563 28.1122 7.92437C28.1126 7.65675 28.0601 7.3917 27.9579 7.1444C27.8556 6.89709 27.7056 6.67238 27.5163 6.48315C27.3271 6.29392 27.1024 6.14388 26.8551 6.04162C26.6078 5.93937 26.3428 5.88691 26.0751 5.88724V5.88724ZM33.9981 17C33.9981 14.6524 34.0194 12.3261 33.8875 9.98276C33.7557 7.26092 33.1348 4.84529 31.1445 2.85494C29.1499 0.860345 26.7386 0.243679 24.0168 0.11184C21.6693 -0.0199994 19.343 0.00126499 16.9997 0.00126499C14.6521 0.00126499 12.3259 -0.0199994 9.98257 0.11184C7.26079 0.243679 4.8452 0.864598 2.85489 2.85494C0.860329 4.84954 0.243674 7.26092 0.111838 9.98276C-0.0199991 12.3303 0.00126497 14.6567 0.00126497 17C0.00126497 19.3433 -0.0199991 21.6739 0.111838 24.0172C0.243674 26.7391 0.864582 29.1547 2.85489 31.1451C4.84945 33.1397 7.26079 33.7563 9.98257 33.8882C12.3301 34.02 14.6564 33.9987 16.9997 33.9987C19.3472 33.9987 21.6735 34.02 24.0168 33.8882C26.7386 33.7563 29.1542 33.1354 31.1445 31.1451C33.139 29.1505 33.7557 26.7391 33.8875 24.0172C34.0236 21.6739 33.9981 19.3476 33.9981 17V17ZM30.2556 27.0283C29.9452 27.8023 29.5709 28.3807 28.9713 28.9761C28.3717 29.5757 27.7975 29.95 27.0235 30.2605C24.7866 31.1493 19.4748 30.9494 16.9954 30.9494C14.5161 30.9494 9.20006 31.1493 6.96309 30.2647C6.18908 29.9543 5.6107 29.58 5.01531 28.9803C4.41567 28.3807 4.04142 27.8066 3.73097 27.0325C2.84638 24.7913 3.04627 19.4794 3.04627 17C3.04627 14.5206 2.84638 9.20448 3.73097 6.96747C4.04142 6.19345 4.41567 5.61506 5.01531 5.01966C5.61495 4.42425 6.18908 4.04575 6.96309 3.73529C9.20006 2.85069 14.5161 3.05058 16.9954 3.05058C19.4748 3.05058 24.7908 2.85069 27.0278 3.73529C27.8018 4.04575 28.3802 4.42 28.9756 5.01966C29.5752 5.61931 29.9494 6.19345 30.2599 6.96747C31.1445 9.20448 30.9446 14.5206 30.9446 17C30.9446 19.4794 31.1445 24.7913 30.2556 27.0283Z" fill="#2B3D42"/>
</svg>
