<svg width="34" height="34" viewBox="0 0 34 34" fill="none" xmlns="http://www.w3.org/2000/svg">
<path d="M28.9638 28.9745H23.9349V21.0836C23.9349 19.202 23.8956 16.7838 21.3053 16.7838C18.683 16.7838 18.2835 18.8248 18.2835 20.9444V28.9735H13.2483V12.7485H18.0848V14.9617H18.1496C18.8254 13.6835 20.4691 12.3395 22.9213 12.3395C28.0224 12.3395 28.9691 15.6979 28.9691 20.0647V28.9735L28.9638 28.9745ZM7.55969 10.5312C7.17535 10.5313 6.79477 10.4556 6.43973 10.3085C6.0847 10.1613 5.76218 9.94553 5.49067 9.67352C5.21915 9.40152 5.00396 9.07863 4.85743 8.72333C4.7109 8.36804 4.63591 7.98733 4.63675 7.60301C4.63738 7.02455 4.80952 6.45927 5.13141 5.97863C5.4533 5.498 5.91047 5.1236 6.44514 4.90276C6.9798 4.68193 7.56794 4.62458 8.1352 4.73798C8.70245 4.85137 9.22335 5.13041 9.63202 5.53981C10.0407 5.94922 10.3188 6.4706 10.4312 7.03804C10.5435 7.60548 10.4851 8.1935 10.2633 8.72775C10.0415 9.26199 9.66625 9.71848 9.18501 10.0395C8.70378 10.3605 8.13816 10.5316 7.55969 10.5312V10.5312ZM10.0821 28.9745H5.03625V12.7496H10.0821V28.9745ZM31.4882 0H2.5075C1.12306 0 0 1.0954 0 2.45111V31.5489C0 32.9046 1.12306 34 2.5075 34H31.4829C32.8653 34 34 32.9046 34 31.5489V2.45111C34 1.0954 32.8653 0 31.4829 0H31.4882Z" fill="#2B3D42"/>
</svg>
